<svg xmlns="http://www.w3.org/2000/svg" viewBox="0 -256 1792 1792" xmlns:v="https://vecta.io/nano"><path d="M596.61 1154.17q0 80-56 136-56 56-136 56-80 0-136-56-56-56-56-136 0-80 56-136 56-56 136-56 80 0 136 56 56 56 56 136zm512 123q2 28-17 48-18 21-47 21h-135q-25 0-43-16.5-18-16.5-20-41.5-22-229-184.5-391.5-162.5-162.5-391.5-184.5-25-2-41.5-20-16.5-18-16.5-43v-135q0-29 21-47 17-17 43-17h5q160 13 306 80.5 146 67.5 259 181.5 114 113 181.5 259 67.5 146 80.5 306zm512 2q2 27-18 47-18 20-46 20h-143q-26 0-44.5-17.5-18.5-17.5-19.5-42.5-12-215-101-408.5-89-193.5-231.5-336-142.5-142.5-336-231.5-193.5-89-408.5-102-25-1-42.5-19.5-17.5-18.5-17.5-43.5v-143q0-28 20-46 18-18 44-18h3q262 13 501.5 120 239.5 107 425.5 294 187 186 294 425.5 107 239.5 120 501.5z"/></svg>